<?xml version="1.0" encoding="UTF-8" standalone="no"?>
<!-- Generator: Adobe Illustrator 16.0.0, SVG Export Plug-In . SVG Version: 6.00 Build 0)  -->

<svg
   xmlns:dc="http://purl.org/dc/elements/1.1/"
   xmlns:cc="http://creativecommons.org/ns#"
   xmlns:rdf="http://www.w3.org/1999/02/22-rdf-syntax-ns#"
   xmlns:svg="http://www.w3.org/2000/svg"
   xmlns="http://www.w3.org/2000/svg"
   xmlns:sodipodi="http://sodipodi.sourceforge.net/DTD/sodipodi-0.dtd"
   xmlns:inkscape="http://www.inkscape.org/namespaces/inkscape"
   version="1.1"
   id="Layer_1"
   x="0px"
   y="0px"
   width="68px"
   height="67.5px"
   viewBox="-22.5 0 68 67.5"
   enable-background="new -22.5 0 68 67.5"
   xml:space="preserve"
   sodipodi:docname="logo.svg"
   inkscape:version="0.92.2 5c3e80d, 2017-08-06"><metadata
     id="metadata51"><rdf:RDF><cc:Work
         rdf:about=""><dc:format>image/svg+xml</dc:format><dc:type
           rdf:resource="http://purl.org/dc/dcmitype/StillImage" /></cc:Work></rdf:RDF></metadata><defs
     id="defs49" /><sodipodi:namedview
     pagecolor="#ffffff"
     bordercolor="#666666"
     borderopacity="1"
     objecttolerance="10"
     gridtolerance="10"
     guidetolerance="10"
     inkscape:pageopacity="0"
     inkscape:pageshadow="2"
     inkscape:window-width="741"
     inkscape:window-height="480"
     id="namedview47"
     showgrid="false"
     inkscape:zoom="3.4962963"
     inkscape:cx="34"
     inkscape:cy="33.75"
     inkscape:window-x="0"
     inkscape:window-y="0"
     inkscape:window-maximized="0"
     inkscape:current-layer="Layer_1" /><path
     fill-rule="evenodd"
     clip-rule="evenodd"
     d="M68.403,222.8c-0.243-0.011-0.487-0.021-0.73-0.032  c0.002-0.082,0.004-0.166,0.006-0.249c0.243,0,0.487,0,0.73,0C68.407,222.612,68.405,222.706,68.403,222.8z"
     id="path28" /><path
     fill-rule="evenodd"
     clip-rule="evenodd"
     fill="#FFFFFF"
     d="M12.202,26.225c0,0.04,0,0.081,0,0.12c-0.002,0-0.005,0-0.008,0  c0-0.039,0-0.08,0-0.12C12.197,26.225,12.2,26.225,12.202,26.225z"
     id="path30" /><path
     fill-rule="evenodd"
     clip-rule="evenodd"
     fill="#FFFFFF"
     d="M18.93,26.225c0,0.04,0,0.081,0,0.12c-0.002,0-0.005,0-0.008,0  c0-0.039,0-0.08,0-0.12C18.925,26.225,18.928,26.225,18.93,26.225z"
     id="path32" /><g
     id="g40"
     transform="translate(-0.853,10.539)"><path
       d="m 12.013,38.292 c 0.463,0.206 0.651,0.657 0.6,0.991 -0.086,0.584 -0.511,0.825 -0.913,0.834 -0.429,0.007 -0.795,-0.302 -0.898,-0.685 -0.129,-0.489 0.144,-0.949 0.576,-1.118 -0.021,-0.046 -0.063,-0.039 -0.098,-0.046 -0.157,-0.029 -0.295,-0.09 -0.387,-0.228 -0.056,-0.082 -0.093,-0.172 -0.094,-0.268 0,-0.073 -10e-4,-0.142 -10e-4,-0.21 0,-3.39 0,-6.781 0,-10.171 0,-0.131 0.015,-0.25 0.075,-0.37 0.028,-0.054 0.028,-0.129 0.02,-0.192 C 10.852,26.556 10.809,26.28 10.761,26.005 10.729,25.827 10.695,25.649 10.65,25.474 10.599,25.273 10.534,25.077 10.475,24.88 10.391,24.604 10.307,24.327 10.216,24.056 10.139,23.824 10.054,23.596 9.966,23.369 9.862,23.097 9.756,22.824 9.644,22.556 9.539,22.298 9.428,22.039 9.316,21.784 9.182,21.468 9.046,21.146 8.908,20.83 8.776,20.527 8.639,20.225 8.504,19.926 8.289,19.449 8.071,18.973 7.859,18.499 7.706,18.159 7.559,17.815 7.411,17.475 7.286,17.191 7.158,16.906 7.039,16.617 6.915,16.318 6.797,16.013 6.68,15.709 6.586,15.462 6.489,15.216 6.407,14.965 6.312,14.675 6.231,14.382 6.149,14.089 6.098,13.904 6.047,13.717 6.015,13.528 5.976,13.3 5.939,13.072 5.945,12.837 5.951,12.625 5.95,12.411 5.955,12.2 5.963,12 5.997,11.806 6.042,11.613 6.092,11.401 6.136,11.185 6.202,10.975 6.274,10.752 6.358,10.533 6.453,10.321 6.595,10.007 6.768,9.714 6.967,9.433 7.195,9.114 7.448,8.819 7.731,8.548 7.961,8.329 8.205,8.131 8.463,7.95 8.816,7.702 9.192,7.499 9.592,7.339 9.837,7.243 10.081,7.155 10.336,7.092 c 0.15,-0.036 0.299,-0.063 0.449,-0.095 0.146,-0.032 0.294,-0.025 0.438,-0.051 0.257,-0.047 0.516,-0.037 0.774,-0.025 0.189,0.009 0.381,0.047 0.57,0.076 0.121,0.017 0.243,0.037 0.362,0.059 0.071,0.014 0.144,0.032 0.21,0.052 0.453,0.134 0.888,0.303 1.298,0.536 0.436,0.248 0.837,0.541 1.2,0.89 0.279,0.264 0.528,0.546 0.751,0.854 0.241,0.33 0.44,0.687 0.6,1.062 0.097,0.229 0.175,0.466 0.249,0.702 0.084,0.284 0.13,0.574 0.177,0.861 0.021,0.136 0.023,0.271 0.023,0.406 0.004,0.205 0.004,0.41 -0.007,0.615 -0.016,0.274 -0.07,0.543 -0.138,0.812 -0.04,0.156 -0.074,0.314 -0.115,0.469 -0.032,0.123 -0.066,0.246 -0.109,0.365 -0.07,0.209 -0.145,0.419 -0.223,0.629 -0.072,0.203 -0.146,0.405 -0.224,0.604 -0.116,0.296 -0.237,0.593 -0.357,0.886 -0.088,0.212 -0.18,0.419 -0.269,0.625 -0.152,0.347 -0.305,0.691 -0.457,1.035 -0.115,0.25 -0.227,0.504 -0.343,0.755 -0.16,0.359 -0.323,0.722 -0.483,1.081 -0.158,0.356 -0.319,0.708 -0.472,1.064 -0.156,0.364 -0.308,0.73 -0.456,1.096 -0.139,0.337 -0.275,0.676 -0.403,1.017 -0.099,0.255 -0.182,0.516 -0.271,0.774 -0.075,0.225 -0.156,0.447 -0.223,0.674 -0.074,0.257 -0.137,0.514 -0.2,0.773 -0.039,0.148 -0.074,0.299 -0.1,0.451 -0.026,0.141 -0.039,0.285 -0.059,0.426 -0.014,0.1 -0.028,0.196 -0.041,0.299 -0.009,0.067 0,0.137 0.041,0.197 0.059,0.086 0.053,0.183 0.053,0.281 0,1.597 0,3.191 0,4.788 0,1.851 0,3.704 0.004,5.553 0,0.15 -0.024,0.283 -0.125,0.399 -0.093,0.104 -0.214,0.15 -0.344,0.178 -0.033,0.008 -0.068,0.019 -0.103,0.027 z M 11.587,21.196 c 0.01,0 0.021,0 0.031,0 0.02,-0.12 0.042,-0.243 0.059,-0.36 0.021,-0.135 0.031,-0.27 0.055,-0.402 0.021,-0.113 0.057,-0.223 0.083,-0.336 0.058,-0.245 0.116,-0.495 0.174,-0.743 0.039,-0.161 0.085,-0.32 0.122,-0.48 0.039,-0.169 0.069,-0.34 0.107,-0.511 0.041,-0.174 0.088,-0.341 0.127,-0.513 0.051,-0.224 0.098,-0.443 0.141,-0.666 0.051,-0.256 0.102,-0.51 0.149,-0.765 0.022,-0.118 0.044,-0.236 0.061,-0.354 0.021,-0.134 0.038,-0.268 0.057,-0.402 0.03,-0.202 0.06,-0.402 0.091,-0.604 0.002,-0.017 0.002,-0.033 0.004,-0.046 0.024,-0.17 0.055,-0.343 0.076,-0.515 0.02,-0.144 0.033,-0.291 0.045,-0.437 0.019,-0.2 0.037,-0.402 0.047,-0.603 0.01,-0.186 0.016,-0.37 0.02,-0.557 0.002,-0.385 0.011,-0.767 0.002,-1.151 -0.006,-0.29 -0.031,-0.579 -0.057,-0.867 -0.014,-0.165 -0.037,-0.329 -0.057,-0.494 0,-0.006 -0.004,-0.015 -0.004,-0.022 C 12.894,10.24 12.869,10.112 12.844,9.985 12.823,9.878 12.809,9.769 12.78,9.668 12.725,9.456 12.665,9.245 12.594,9.038 12.532,8.845 12.457,8.652 12.377,8.466 12.266,8.214 12.132,7.971 11.979,7.739 11.884,7.6 11.781,7.467 11.679,7.332 11.635,7.276 11.609,7.276 11.563,7.335 11.499,7.416 11.436,7.498 11.375,7.584 11.166,7.879 10.992,8.197 10.852,8.529 10.761,8.748 10.683,8.974 10.608,9.199 10.56,9.347 10.534,9.5 10.493,9.647 c -0.062,0.24 -0.115,0.481 -0.145,0.726 -0.016,0.139 -0.041,0.275 -0.056,0.415 -0.03,0.269 -0.067,0.537 -0.076,0.807 -0.013,0.383 -0.008,0.767 -0.009,1.15 0,0.158 -0.003,0.319 0.01,0.476 0.021,0.315 0.049,0.632 0.078,0.947 0.03,0.294 0.062,0.585 0.097,0.878 0.016,0.143 0.042,0.283 0.06,0.426 0.022,0.159 0.041,0.322 0.065,0.479 0.042,0.271 0.091,0.536 0.137,0.8 0.004,0.02 0.009,0.038 0.015,0.056 0.023,0.114 0.047,0.226 0.07,0.341 0.022,0.118 0.042,0.238 0.064,0.36 0.015,0.083 0.035,0.165 0.05,0.25 0.028,0.119 0.056,0.239 0.085,0.361 0.042,0.187 0.086,0.376 0.13,0.562 0.035,0.15 0.073,0.299 0.108,0.45 0.022,0.1 0.042,0.203 0.062,0.303 0.017,0.073 0.034,0.143 0.053,0.215 0.025,0.098 0.054,0.197 0.078,0.3 0.022,0.104 0.039,0.211 0.059,0.316 0.032,0.165 0.065,0.326 0.093,0.489 0.026,0.148 0.044,0.295 0.066,0.442 z m 0.381,4.01 c 0.007,0 0.015,0 0.021,0 0.007,-0.012 0.017,-0.025 0.02,-0.036 0.054,-0.263 0.106,-0.523 0.158,-0.783 0.016,-0.08 0.034,-0.157 0.053,-0.238 0.043,-0.168 0.087,-0.332 0.127,-0.502 0.041,-0.158 0.074,-0.322 0.114,-0.481 0.043,-0.185 0.092,-0.367 0.139,-0.549 0.036,-0.146 0.08,-0.291 0.117,-0.436 0.039,-0.145 0.081,-0.29 0.119,-0.433 0.04,-0.143 0.07,-0.283 0.109,-0.425 0.061,-0.215 0.123,-0.43 0.184,-0.644 0.059,-0.208 0.119,-0.416 0.178,-0.624 0.039,-0.141 0.077,-0.28 0.115,-0.421 0.035,-0.123 0.07,-0.251 0.105,-0.375 0.043,-0.141 0.088,-0.281 0.129,-0.42 0.041,-0.139 0.074,-0.275 0.117,-0.412 0.057,-0.189 0.12,-0.382 0.176,-0.571 0.052,-0.185 0.101,-0.369 0.153,-0.554 0.064,-0.218 0.13,-0.435 0.197,-0.653 0.06,-0.19 0.116,-0.382 0.177,-0.574 0.035,-0.125 0.068,-0.251 0.105,-0.376 0.037,-0.138 0.069,-0.273 0.107,-0.413 0.042,-0.149 0.089,-0.302 0.131,-0.453 0.038,-0.153 0.07,-0.31 0.115,-0.461 0.066,-0.234 0.108,-0.476 0.123,-0.718 0.038,-0.767 0.031,-1.53 -0.13,-2.289 C 14.85,11.001 14.763,10.641 14.639,10.285 14.543,10.011 14.438,9.747 14.309,9.488 14.078,9.025 13.791,8.6 13.424,8.23 13.126,7.928 12.785,7.685 12.406,7.493 12.328,7.454 12.246,7.425 12.147,7.385 c 0.012,0.042 0.014,0.061 0.024,0.075 0.058,0.095 0.119,0.187 0.177,0.283 0.191,0.308 0.335,0.641 0.469,0.974 0.06,0.148 0.104,0.299 0.147,0.45 0.042,0.147 0.076,0.297 0.109,0.448 0.047,0.198 0.094,0.396 0.129,0.597 0.031,0.184 0.055,0.367 0.073,0.553 0.032,0.325 0.067,0.646 0.077,0.971 0.025,0.678 0.008,1.357 -0.054,2.031 -0.033,0.394 -0.087,0.785 -0.132,1.176 -0.034,0.288 -0.074,0.574 -0.111,0.863 0,0.019 -0.006,0.036 -0.009,0.055 -0.024,0.134 -0.052,0.264 -0.074,0.397 -0.021,0.125 -0.036,0.253 -0.06,0.377 -0.04,0.204 -0.089,0.405 -0.129,0.608 -0.031,0.147 -0.058,0.297 -0.091,0.443 -0.05,0.229 -0.106,0.458 -0.159,0.688 -0.037,0.172 -0.07,0.345 -0.111,0.518 -0.039,0.161 -0.087,0.323 -0.126,0.489 -0.061,0.249 -0.122,0.495 -0.176,0.742 -0.046,0.208 -0.088,0.415 -0.123,0.627 -0.029,0.174 -0.039,0.352 -0.059,0.529 -0.025,0.221 -0.057,0.445 -0.078,0.667 -0.02,0.202 -0.037,0.407 -0.044,0.611 -0.014,0.353 -0.034,0.71 0.024,1.065 0.033,0.204 0.02,0.414 0.048,0.622 0.038,0.283 0.041,0.57 0.058,0.856 0.008,0.037 0.016,0.071 0.022,0.106 z M 10.447,7.425 C 10.444,7.415 10.444,7.407 10.441,7.401 10.416,7.401 10.388,7.399 10.365,7.406 10.093,7.5 9.817,7.586 9.553,7.695 9.308,7.796 9.077,7.926 8.853,8.069 8.408,8.35 8.007,8.682 7.657,9.071 7.389,9.369 7.157,9.692 6.955,10.04 c -0.253,0.434 -0.44,0.895 -0.558,1.382 -0.066,0.275 -0.105,0.56 -0.138,0.844 -0.033,0.288 -0.023,0.57 0.014,0.858 0.037,0.295 0.102,0.585 0.173,0.873 0.062,0.245 0.143,0.484 0.223,0.725 0.095,0.279 0.189,0.562 0.296,0.837 0.152,0.398 0.311,0.791 0.476,1.185 0.202,0.482 0.413,0.96 0.622,1.438 0.188,0.429 0.385,0.854 0.576,1.282 0.167,0.366 0.333,0.733 0.497,1.102 0.148,0.332 0.294,0.668 0.438,1.001 0.091,0.215 0.176,0.428 0.262,0.643 0.125,0.312 0.255,0.625 0.377,0.939 0.096,0.247 0.189,0.497 0.279,0.748 0.056,0.159 0.104,0.319 0.156,0.479 0.038,0.116 0.074,0.233 0.108,0.351 0.061,0.211 0.126,0.42 0.182,0.631 0.042,0.168 0.077,0.338 0.113,0.511 0.029,0.135 0.058,0.27 0.076,0.405 0.024,0.151 0.037,0.302 0.058,0.449 0.005,0.025 0.032,0.062 0.051,0.066 0.043,0.002 0.055,-0.034 0.051,-0.074 -0.008,-0.118 -0.015,-0.239 -0.03,-0.357 C 11.238,26.206 11.213,26.05 11.191,25.901 11.17,25.768 11.15,25.633 11.129,25.5 11.116,25.422 11.102,25.342 11.085,25.263 11.044,25.076 11,24.89 10.959,24.701 10.916,24.506 10.879,24.308 10.833,24.114 10.756,23.795 10.678,23.476 10.603,23.158 10.583,23.078 10.562,23.002 10.542,22.922 10.501,22.769 10.459,22.613 10.418,22.456 10.379,22.308 10.342,22.161 10.302,22.011 10.241,21.787 10.179,21.563 10.118,21.34 10.081,21.209 10.045,21.073 10.006,20.941 9.969,20.807 9.925,20.669 9.888,20.535 9.848,20.389 9.817,20.243 9.775,20.098 9.7,19.836 9.619,19.576 9.541,19.313 9.488,19.132 9.439,18.949 9.386,18.769 9.343,18.62 9.298,18.468 9.253,18.317 9.213,18.182 9.169,18.045 9.129,17.909 9.071,17.712 9.014,17.517 8.957,17.321 8.92,17.195 8.886,17.067 8.848,16.943 8.809,16.807 8.765,16.672 8.724,16.538 8.685,16.402 8.652,16.265 8.612,16.127 8.537,15.872 8.457,15.617 8.384,15.363 8.325,15.16 8.277,14.953 8.224,14.748 8.207,14.679 8.19,14.607 8.172,14.537 8.146,14.429 8.112,14.323 8.094,14.213 8.068,14.054 8.058,13.89 8.031,13.731 7.982,13.443 8,13.153 7.993,12.863 7.99,12.594 8.013,12.329 8.042,12.064 8.062,11.895 8.078,11.726 8.101,11.557 8.113,11.462 8.131,11.367 8.152,11.273 8.174,11.169 8.203,11.064 8.23,10.962 8.281,10.756 8.32,10.548 8.389,10.348 8.492,10.049 8.604,9.754 8.735,9.468 8.897,9.111 9.103,8.778 9.341,8.464 9.624,8.094 9.954,7.777 10.334,7.508 10.374,7.478 10.41,7.45 10.447,7.425 Z m 2.481,0.007 c 0.02,0.009 0.039,0.014 0.053,0.024 0.021,0.013 0.038,0.028 0.057,0.041 0.201,0.135 0.385,0.29 0.561,0.458 0.23,0.221 0.429,0.471 0.611,0.733 0.197,0.288 0.361,0.597 0.506,0.917 0.124,0.277 0.228,0.562 0.313,0.853 0.05,0.167 0.089,0.335 0.13,0.504 0.021,0.086 0.036,0.174 0.057,0.259 0.037,0.162 0.076,0.322 0.084,0.489 0.002,0.023 0.005,0.045 0.01,0.068 0.026,0.208 0.065,0.421 0.072,0.632 0.016,0.361 0.01,0.727 0.004,1.091 -0.004,0.166 -0.031,0.331 -0.05,0.494 -0.013,0.1 -0.034,0.198 -0.054,0.296 -0.023,0.101 -0.055,0.2 -0.078,0.302 -0.043,0.164 -0.086,0.327 -0.131,0.492 -0.052,0.196 -0.111,0.393 -0.166,0.588 -0.055,0.191 -0.104,0.387 -0.16,0.576 -0.041,0.146 -0.084,0.288 -0.127,0.43 -0.044,0.141 -0.083,0.28 -0.127,0.422 -0.059,0.196 -0.115,0.391 -0.17,0.59 -0.038,0.123 -0.069,0.249 -0.105,0.375 -0.058,0.184 -0.119,0.363 -0.173,0.55 -0.063,0.21 -0.124,0.428 -0.187,0.641 -0.053,0.178 -0.104,0.354 -0.153,0.531 -0.044,0.148 -0.081,0.297 -0.123,0.444 -0.041,0.146 -0.085,0.297 -0.127,0.442 -0.038,0.137 -0.077,0.278 -0.112,0.411 -0.061,0.22 -0.123,0.439 -0.183,0.657 -0.034,0.136 -0.07,0.269 -0.104,0.401 -0.043,0.152 -0.088,0.304 -0.127,0.456 -0.038,0.146 -0.07,0.298 -0.108,0.449 -0.06,0.229 -0.126,0.46 -0.184,0.691 -0.056,0.243 -0.104,0.49 -0.157,0.734 -0.018,0.082 -0.039,0.163 -0.058,0.247 -0.026,0.112 -0.054,0.229 -0.075,0.349 -0.023,0.116 -0.042,0.233 -0.064,0.352 -0.024,0.132 -0.056,0.266 -0.078,0.397 -0.03,0.187 -0.056,0.372 -0.079,0.562 -0.014,0.108 -0.02,0.215 -0.029,0.323 -0.004,0.041 0.007,0.075 0.05,0.074 0.037,0 0.062,-0.026 0.06,-0.071 0,-0.011 0,-0.022 10e-4,-0.034 0.019,-0.166 0.04,-0.329 0.058,-0.493 10e-4,-0.014 0.005,-0.023 0.008,-0.033 0.026,-0.118 0.052,-0.234 0.076,-0.349 0.026,-0.105 0.043,-0.213 0.067,-0.315 0.042,-0.17 0.089,-0.336 0.136,-0.507 0.037,-0.129 0.072,-0.26 0.113,-0.388 0.057,-0.169 0.115,-0.34 0.172,-0.508 0.07,-0.204 0.133,-0.407 0.211,-0.609 0.105,-0.277 0.215,-0.554 0.322,-0.827 0.088,-0.218 0.173,-0.435 0.265,-0.651 0.168,-0.395 0.338,-0.788 0.511,-1.183 0.117,-0.273 0.235,-0.544 0.355,-0.813 0.172,-0.381 0.349,-0.76 0.521,-1.14 0.122,-0.272 0.247,-0.545 0.366,-0.817 0.138,-0.312 0.272,-0.626 0.409,-0.939 0.109,-0.255 0.22,-0.509 0.326,-0.765 0.087,-0.216 0.17,-0.435 0.253,-0.652 0.074,-0.195 0.151,-0.386 0.221,-0.581 0.062,-0.17 0.116,-0.344 0.169,-0.515 0.04,-0.121 0.074,-0.244 0.109,-0.366 0.043,-0.15 0.087,-0.3 0.124,-0.455 0.026,-0.11 0.048,-0.223 0.065,-0.339 0.027,-0.207 0.064,-0.412 0.075,-0.62 0.013,-0.25 0.011,-0.501 -0.039,-0.749 C 17.059,11.841 17.04,11.621 16.991,11.407 16.948,11.222 16.876,11.044 16.816,10.863 16.707,10.532 16.548,10.226 16.372,9.929 16.148,9.548 15.871,9.208 15.569,8.893 15.316,8.639 15.044,8.406 14.747,8.206 14.468,8.02 14.183,7.844 13.873,7.714 13.636,7.615 13.391,7.527 13.146,7.441 13.086,7.421 13.019,7.385 12.928,7.432 Z m -1.561,17.583 c 0.016,-0.056 0.027,-0.088 0.029,-0.12 0.011,-0.216 0.02,-0.433 0.031,-0.648 0.011,-0.241 0.025,-0.477 0.035,-0.719 0.008,-0.224 0.039,-0.446 -10e-4,-0.672 -0.012,-0.075 -0.018,-0.152 -0.026,-0.231 -0.037,-0.365 -0.075,-0.729 -0.113,-1.096 -0.014,-0.131 -0.029,-0.263 -0.051,-0.39 -0.04,-0.233 -0.079,-0.462 -0.123,-0.696 -0.034,-0.182 -0.068,-0.368 -0.11,-0.554 -0.057,-0.238 -0.124,-0.477 -0.178,-0.715 -0.072,-0.312 -0.139,-0.625 -0.209,-0.938 -0.02,-0.087 -0.039,-0.174 -0.058,-0.259 -0.025,-0.111 -0.051,-0.225 -0.075,-0.337 -0.024,-0.11 -0.04,-0.221 -0.062,-0.328 -0.024,-0.128 -0.054,-0.257 -0.08,-0.384 -0.026,-0.134 -0.046,-0.267 -0.07,-0.4 -0.042,-0.246 -0.091,-0.494 -0.13,-0.741 C 10.149,15.618 10.134,15.449 10.113,15.281 10.071,14.96 10.022,14.638 9.988,14.316 9.959,14.04 9.949,13.761 9.933,13.484 9.918,13.275 9.896,13.071 9.892,12.861 9.888,12.404 9.872,11.949 9.922,11.493 9.954,11.212 9.963,10.931 9.984,10.648 9.996,10.522 10.017,10.398 10.041,10.271 10.08,10.064 10.123,9.857 10.17,9.65 10.206,9.492 10.24,9.334 10.29,9.179 10.357,8.961 10.432,8.749 10.517,8.538 10.599,8.336 10.694,8.138 10.793,7.943 10.869,7.794 10.96,7.65 11.044,7.501 10.967,7.464 10.919,7.524 10.871,7.549 10.469,7.759 10.123,8.043 9.82,8.377 9.531,8.693 9.299,9.046 9.107,9.425 8.999,9.639 8.899,9.861 8.813,10.085 8.73,10.31 8.664,10.542 8.6,10.77 8.547,10.965 8.506,11.16 8.464,11.354 8.439,11.47 8.424,11.59 8.409,11.709 8.381,11.907 8.335,12.105 8.331,12.302 8.32,12.837 8.278,13.37 8.367,13.903 c 0.021,0.132 0.035,0.265 0.062,0.397 0.039,0.175 0.089,0.351 0.137,0.524 0.04,0.152 0.087,0.304 0.13,0.459 0.039,0.138 0.075,0.282 0.115,0.421 0.037,0.133 0.075,0.266 0.115,0.398 0.039,0.128 0.082,0.254 0.118,0.383 0.042,0.144 0.079,0.289 0.123,0.434 0.071,0.243 0.148,0.484 0.22,0.729 0.055,0.188 0.103,0.376 0.157,0.565 0.04,0.139 0.086,0.279 0.13,0.416 0.055,0.192 0.106,0.388 0.162,0.576 0.075,0.253 0.154,0.501 0.227,0.754 0.041,0.14 0.072,0.28 0.109,0.42 0.059,0.206 0.122,0.406 0.178,0.611 0.088,0.317 0.169,0.64 0.257,0.962 0.057,0.212 0.121,0.426 0.177,0.639 0.061,0.232 0.113,0.465 0.172,0.695 0.073,0.302 0.148,0.601 0.221,0.9 0.018,0.07 0.035,0.14 0.05,0.214 0.018,0.104 0.037,0.21 0.057,0.314 0.015,0.078 0.03,0.151 0.046,0.227 0.003,0.019 0.014,0.035 0.037,0.074 z m 0.085,13.475 c -0.346,0.1 -0.56,0.483 -0.499,0.818 0.071,0.393 0.429,0.655 0.781,0.629 0.352,-0.021 0.656,-0.296 0.705,-0.662 0.051,-0.352 -0.209,-0.722 -0.51,-0.782 -0.012,0.101 -0.09,0.077 -0.159,0.079 -0.058,10e-4 -0.116,-0.005 -0.173,10e-4 -0.07,0.007 -0.12,-0.012 -0.145,-0.083 z m 0.251,-12.012 c -0.005,-0.003 -0.012,-0.003 -0.017,-0.003 0,0.082 0,0.166 0,0.245 0.005,0 0.012,0 0.017,0 0,-0.079 0,-0.163 0,-0.242 z"
       id="path34"
       inkscape:connector-curvature="0"
       style="clip-rule:evenodd;fill:#444444;fill-rule:evenodd" /><path
       d="m 22.509,38.699 c 0.358,0.159 0.504,0.511 0.465,0.771 -0.066,0.455 -0.397,0.641 -0.708,0.647 -0.336,0.005 -0.62,-0.235 -0.698,-0.531 -0.101,-0.381 0.11,-0.738 0.446,-0.869 -0.017,-0.035 -0.052,-0.029 -0.077,-0.035 -0.121,-0.023 -0.228,-0.068 -0.298,-0.178 -0.044,-0.063 -0.073,-0.132 -0.073,-0.209 0,-0.056 0,-0.108 0,-0.161 0,-2.633 0,-5.269 -0.003,-7.898 0,-0.103 0.014,-0.196 0.058,-0.289 0.023,-0.042 0.023,-0.1 0.019,-0.149 -0.032,-0.213 -0.067,-0.427 -0.104,-0.64 -0.025,-0.139 -0.051,-0.277 -0.088,-0.412 -0.038,-0.156 -0.089,-0.31 -0.136,-0.464 -0.063,-0.214 -0.13,-0.428 -0.199,-0.64 -0.061,-0.18 -0.129,-0.357 -0.195,-0.532 -0.078,-0.211 -0.163,-0.422 -0.25,-0.631 -0.081,-0.201 -0.168,-0.402 -0.254,-0.601 -0.104,-0.247 -0.209,-0.495 -0.316,-0.741 -0.104,-0.236 -0.21,-0.47 -0.314,-0.704 -0.166,-0.367 -0.336,-0.738 -0.501,-1.107 -0.116,-0.264 -0.232,-0.529 -0.348,-0.795 -0.097,-0.223 -0.197,-0.442 -0.29,-0.667 -0.097,-0.232 -0.186,-0.471 -0.274,-0.705 -0.073,-0.192 -0.15,-0.383 -0.214,-0.577 -0.073,-0.227 -0.139,-0.452 -0.2,-0.682 -0.042,-0.144 -0.08,-0.29 -0.105,-0.436 -0.031,-0.177 -0.061,-0.354 -0.053,-0.537 0.005,-0.165 0,-0.331 0.006,-0.495 0.005,-0.154 0.032,-0.306 0.066,-0.454 0.04,-0.165 0.074,-0.334 0.125,-0.493 0.055,-0.176 0.122,-0.346 0.192,-0.51 0.11,-0.246 0.246,-0.473 0.402,-0.691 0.177,-0.247 0.37,-0.478 0.593,-0.686 0.178,-0.172 0.367,-0.325 0.57,-0.465 0.273,-0.193 0.565,-0.353 0.876,-0.477 0.188,-0.073 0.381,-0.143 0.579,-0.191 0.114,-0.027 0.231,-0.049 0.346,-0.073 0.116,-0.024 0.228,-0.018 0.341,-0.04 0.199,-0.037 0.402,-0.029 0.603,-0.018 0.148,0.005 0.296,0.036 0.442,0.058 0.094,0.014 0.188,0.028 0.281,0.046 0.055,0.012 0.11,0.024 0.165,0.041 0.349,0.104 0.689,0.236 1.007,0.417 0.336,0.189 0.65,0.418 0.934,0.689 0.215,0.206 0.411,0.426 0.582,0.664 0.187,0.257 0.343,0.533 0.467,0.825 0.076,0.178 0.136,0.361 0.191,0.546 0.066,0.219 0.101,0.445 0.138,0.669 0.016,0.105 0.019,0.209 0.019,0.313 0.002,0.159 0.002,0.319 -0.008,0.479 -0.009,0.212 -0.053,0.422 -0.107,0.63 -0.029,0.121 -0.053,0.245 -0.09,0.364 -0.022,0.096 -0.05,0.191 -0.079,0.284 -0.059,0.162 -0.114,0.325 -0.173,0.49 -0.061,0.156 -0.112,0.312 -0.178,0.469 -0.089,0.228 -0.182,0.459 -0.276,0.688 -0.068,0.163 -0.142,0.323 -0.211,0.486 -0.114,0.268 -0.234,0.534 -0.353,0.802 -0.091,0.194 -0.178,0.392 -0.265,0.585 -0.125,0.28 -0.251,0.562 -0.375,0.84 -0.127,0.277 -0.251,0.552 -0.37,0.828 -0.122,0.283 -0.236,0.567 -0.353,0.853 -0.107,0.26 -0.215,0.523 -0.313,0.788 -0.077,0.197 -0.14,0.401 -0.211,0.602 -0.058,0.175 -0.121,0.348 -0.173,0.522 -0.058,0.201 -0.109,0.4 -0.156,0.603 -0.028,0.114 -0.056,0.232 -0.077,0.35 -0.02,0.109 -0.029,0.22 -0.045,0.329 -0.012,0.079 -0.022,0.153 -0.033,0.232 -0.004,0.054 -0.001,0.106 0.031,0.153 0.046,0.067 0.043,0.144 0.043,0.219 0,1.242 0,2.479 0,3.719 0,1.438 -0.002,2.878 0,4.314 0,0.116 -0.016,0.22 -0.097,0.309 -0.071,0.081 -0.163,0.117 -0.262,0.141 -0.033,0.004 -0.059,0.012 -0.084,0.018 z M 22.176,25.422 c 0.008,0 0.017,0 0.023,0 0.017,-0.095 0.034,-0.188 0.046,-0.281 0.017,-0.104 0.022,-0.209 0.044,-0.312 0.016,-0.088 0.043,-0.174 0.063,-0.26 0.046,-0.19 0.091,-0.386 0.136,-0.579 0.03,-0.124 0.066,-0.247 0.097,-0.372 0.03,-0.131 0.053,-0.265 0.08,-0.396 0.03,-0.137 0.069,-0.267 0.1,-0.399 0.039,-0.172 0.075,-0.344 0.11,-0.519 0.039,-0.197 0.078,-0.395 0.115,-0.593 0.018,-0.093 0.033,-0.184 0.048,-0.275 0.016,-0.104 0.03,-0.207 0.043,-0.312 0.023,-0.156 0.046,-0.312 0.069,-0.469 0.002,-0.012 0.002,-0.023 0.005,-0.035 0.021,-0.132 0.041,-0.265 0.057,-0.397 0.019,-0.113 0.027,-0.227 0.038,-0.342 0.013,-0.154 0.026,-0.312 0.036,-0.467 0.006,-0.146 0.012,-0.287 0.012,-0.434 0.005,-0.298 0.011,-0.595 0.005,-0.893 -0.005,-0.225 -0.026,-0.45 -0.044,-0.673 -0.009,-0.13 -0.028,-0.256 -0.047,-0.385 0,-0.005 0,-0.011 -0.002,-0.018 -0.018,-0.099 -0.038,-0.2 -0.06,-0.296 -0.017,-0.084 -0.024,-0.17 -0.046,-0.248 -0.047,-0.165 -0.092,-0.328 -0.147,-0.489 -0.05,-0.149 -0.105,-0.301 -0.169,-0.444 -0.085,-0.196 -0.187,-0.385 -0.309,-0.565 -0.073,-0.106 -0.154,-0.212 -0.232,-0.315 -0.034,-0.044 -0.055,-0.044 -0.092,10e-4 -0.048,0.063 -0.099,0.129 -0.145,0.195 -0.165,0.229 -0.3,0.476 -0.407,0.732 -0.07,0.172 -0.131,0.348 -0.186,0.521 -0.041,0.113 -0.06,0.232 -0.092,0.348 -0.048,0.186 -0.093,0.373 -0.113,0.563 -0.013,0.108 -0.031,0.214 -0.041,0.322 -0.022,0.21 -0.053,0.416 -0.06,0.626 -0.014,0.297 -0.007,0.595 -0.007,0.895 0,0.122 -0.002,0.247 0.007,0.369 0.017,0.246 0.037,0.49 0.06,0.736 0.023,0.227 0.048,0.454 0.076,0.681 0.014,0.111 0.031,0.22 0.047,0.33 0.016,0.125 0.031,0.252 0.049,0.374 0.033,0.21 0.074,0.413 0.107,0.619 0.004,0.017 0.008,0.031 0.011,0.044 0.019,0.089 0.038,0.177 0.052,0.264 0.021,0.094 0.037,0.186 0.054,0.281 0.009,0.064 0.024,0.127 0.039,0.193 0.021,0.093 0.043,0.188 0.063,0.279 0.035,0.146 0.067,0.294 0.104,0.438 0.026,0.117 0.056,0.232 0.084,0.35 0.018,0.079 0.029,0.159 0.047,0.235 0.012,0.058 0.025,0.111 0.041,0.167 0.021,0.076 0.045,0.153 0.061,0.232 0.016,0.08 0.032,0.164 0.047,0.246 0.024,0.128 0.049,0.254 0.072,0.379 0.021,0.117 0.033,0.232 0.051,0.348 z m 0.295,3.115 c 0.006,0 0.011,0 0.018,0 0.005,-0.012 0.012,-0.021 0.014,-0.031 0.041,-0.202 0.083,-0.405 0.125,-0.607 0.011,-0.061 0.025,-0.123 0.041,-0.184 0.032,-0.13 0.068,-0.259 0.099,-0.391 0.031,-0.125 0.058,-0.251 0.085,-0.376 0.039,-0.142 0.076,-0.284 0.113,-0.424 0.029,-0.114 0.059,-0.227 0.089,-0.339 0.03,-0.113 0.061,-0.225 0.093,-0.336 0.029,-0.11 0.055,-0.219 0.084,-0.33 0.046,-0.166 0.095,-0.335 0.143,-0.499 0.046,-0.163 0.095,-0.323 0.141,-0.485 0.029,-0.108 0.058,-0.218 0.09,-0.328 0.024,-0.095 0.053,-0.194 0.079,-0.291 0.036,-0.109 0.069,-0.218 0.1,-0.325 0.029,-0.106 0.061,-0.213 0.095,-0.32 0.044,-0.148 0.089,-0.298 0.135,-0.442 0.04,-0.146 0.076,-0.289 0.117,-0.433 0.052,-0.169 0.104,-0.336 0.151,-0.505 0.049,-0.149 0.093,-0.297 0.139,-0.448 0.027,-0.098 0.055,-0.193 0.083,-0.291 0.027,-0.107 0.055,-0.212 0.082,-0.321 0.032,-0.116 0.069,-0.232 0.102,-0.354 0.029,-0.117 0.055,-0.238 0.092,-0.355 0.054,-0.184 0.085,-0.371 0.096,-0.559 0.031,-0.595 0.023,-1.188 -0.104,-1.779 -0.059,-0.28 -0.128,-0.562 -0.222,-0.835 -0.074,-0.216 -0.156,-0.42 -0.256,-0.621 -0.181,-0.36 -0.402,-0.689 -0.688,-0.977 -0.23,-0.236 -0.494,-0.426 -0.789,-0.573 -0.059,-0.029 -0.124,-0.053 -0.202,-0.086 0.01,0.033 0.013,0.05 0.02,0.06 0.043,0.074 0.091,0.145 0.135,0.22 0.149,0.239 0.262,0.499 0.367,0.757 0.047,0.113 0.078,0.232 0.116,0.349 0.029,0.114 0.057,0.23 0.084,0.348 0.032,0.155 0.072,0.309 0.098,0.465 0.024,0.143 0.046,0.286 0.057,0.43 0.025,0.252 0.055,0.501 0.062,0.752 0.019,0.526 0.006,1.056 -0.043,1.578 -0.025,0.306 -0.067,0.608 -0.101,0.912 -0.028,0.227 -0.058,0.446 -0.089,0.672 0,0.014 -0.004,0.027 -0.004,0.043 -0.021,0.104 -0.041,0.204 -0.06,0.308 -0.017,0.097 -0.027,0.197 -0.046,0.293 -0.032,0.158 -0.069,0.316 -0.102,0.473 -0.022,0.114 -0.043,0.23 -0.068,0.343 -0.039,0.18 -0.081,0.357 -0.122,0.537 -0.029,0.135 -0.056,0.268 -0.087,0.4 -0.031,0.127 -0.067,0.254 -0.099,0.382 -0.049,0.191 -0.095,0.385 -0.139,0.574 -0.034,0.163 -0.068,0.325 -0.094,0.489 -0.022,0.136 -0.029,0.272 -0.046,0.409 -0.021,0.173 -0.046,0.348 -0.06,0.519 -0.017,0.159 -0.03,0.316 -0.035,0.477 -0.012,0.274 -0.027,0.549 0.019,0.827 0.025,0.157 0.017,0.322 0.037,0.482 0.03,0.219 0.03,0.444 0.046,0.664 -0.001,0.026 0.007,0.052 0.009,0.082 z M 21.289,14.724 c 0,-0.007 -0.002,-0.013 -0.004,-0.018 -0.021,0 -0.042,-0.002 -0.061,0.003 -0.209,0.072 -0.425,0.141 -0.63,0.226 -0.188,0.078 -0.367,0.18 -0.545,0.291 -0.342,0.217 -0.654,0.476 -0.927,0.777 -0.208,0.23 -0.389,0.483 -0.545,0.753 -0.195,0.338 -0.344,0.695 -0.433,1.072 -0.051,0.214 -0.083,0.436 -0.107,0.656 -0.025,0.224 -0.017,0.442 0.011,0.668 0.029,0.228 0.078,0.453 0.133,0.677 0.049,0.189 0.114,0.376 0.176,0.562 0.071,0.219 0.146,0.437 0.229,0.652 0.118,0.307 0.24,0.613 0.37,0.919 0.156,0.375 0.32,0.744 0.483,1.116 0.147,0.333 0.298,0.664 0.447,0.996 0.127,0.285 0.26,0.571 0.387,0.856 0.114,0.256 0.228,0.519 0.34,0.778 0.069,0.166 0.136,0.33 0.203,0.498 0.099,0.241 0.199,0.486 0.291,0.729 0.076,0.191 0.147,0.386 0.219,0.581 0.043,0.123 0.08,0.247 0.121,0.373 0.027,0.089 0.056,0.181 0.082,0.271 0.047,0.163 0.1,0.327 0.144,0.49 0.032,0.129 0.06,0.263 0.087,0.396 0.021,0.106 0.044,0.209 0.061,0.313 0.021,0.119 0.027,0.236 0.045,0.35 0,0.021 0.021,0.05 0.039,0.054 0.032,0 0.041,-0.028 0.039,-0.061 -0.007,-0.091 -0.011,-0.183 -0.022,-0.275 -0.014,-0.118 -0.034,-0.237 -0.05,-0.356 -0.02,-0.104 -0.03,-0.207 -0.051,-0.31 -0.01,-0.062 -0.021,-0.123 -0.033,-0.185 -0.034,-0.146 -0.065,-0.292 -0.102,-0.438 -0.031,-0.153 -0.059,-0.306 -0.095,-0.456 -0.058,-0.248 -0.12,-0.494 -0.18,-0.742 -0.015,-0.062 -0.03,-0.122 -0.046,-0.183 -0.032,-0.122 -0.063,-0.24 -0.097,-0.363 -0.03,-0.114 -0.061,-0.229 -0.092,-0.346 -0.047,-0.175 -0.094,-0.349 -0.142,-0.521 -0.026,-0.1 -0.057,-0.207 -0.086,-0.31 -0.03,-0.104 -0.062,-0.212 -0.092,-0.315 -0.033,-0.114 -0.058,-0.227 -0.086,-0.339 -0.062,-0.206 -0.124,-0.406 -0.186,-0.611 -0.042,-0.14 -0.078,-0.282 -0.12,-0.423 -0.033,-0.116 -0.068,-0.232 -0.103,-0.35 C 20.329,23.075 20.297,22.967 20.267,22.862 20.22,22.71 20.174,22.556 20.129,22.404 20.103,22.305 20.076,22.21 20.047,22.111 20.015,22.007 19.982,21.902 19.949,21.796 19.919,21.692 19.893,21.584 19.863,21.478 19.803,21.281 19.742,21.083 19.686,20.885 19.64,20.726 19.601,20.567 19.562,20.406 19.548,20.352 19.533,20.299 19.521,20.242 19.502,20.157 19.475,20.076 19.459,19.99 19.44,19.868 19.434,19.74 19.41,19.617 c -0.037,-0.224 -0.025,-0.449 -0.029,-0.676 -0.002,-0.207 0.016,-0.414 0.04,-0.621 0.015,-0.131 0.025,-0.262 0.045,-0.392 0.009,-0.074 0.022,-0.147 0.038,-0.221 0.019,-0.083 0.041,-0.163 0.062,-0.242 0.039,-0.16 0.072,-0.321 0.124,-0.479 0.081,-0.231 0.166,-0.46 0.267,-0.683 0.127,-0.275 0.287,-0.535 0.472,-0.779 0.22,-0.288 0.475,-0.533 0.771,-0.743 0.033,-0.015 0.062,-0.038 0.089,-0.057 z m 1.928,0.005 c 0.014,0.008 0.03,0.013 0.042,0.02 0.016,0.009 0.029,0.022 0.044,0.032 0.156,0.104 0.301,0.226 0.434,0.355 0.18,0.173 0.333,0.365 0.477,0.571 0.155,0.223 0.28,0.463 0.395,0.709 0.097,0.217 0.175,0.438 0.24,0.665 0.04,0.128 0.07,0.26 0.102,0.39 0.017,0.068 0.027,0.137 0.044,0.203 0.027,0.125 0.06,0.25 0.065,0.377 0,0.02 0.004,0.038 0.007,0.055 0.02,0.162 0.052,0.326 0.059,0.49 0.009,0.281 0.005,0.564 0,0.85 -0.002,0.128 -0.021,0.256 -0.039,0.383 -0.01,0.077 -0.026,0.154 -0.039,0.23 -0.019,0.077 -0.043,0.156 -0.062,0.235 -0.035,0.126 -0.065,0.253 -0.101,0.38 -0.043,0.152 -0.089,0.303 -0.131,0.456 -0.042,0.151 -0.078,0.301 -0.123,0.448 -0.029,0.113 -0.069,0.223 -0.101,0.333 -0.032,0.11 -0.064,0.22 -0.095,0.329 -0.045,0.152 -0.092,0.303 -0.134,0.458 -0.029,0.096 -0.055,0.194 -0.084,0.29 -0.042,0.143 -0.093,0.283 -0.134,0.427 -0.048,0.164 -0.095,0.334 -0.143,0.498 -0.04,0.139 -0.082,0.276 -0.121,0.412 -0.033,0.117 -0.062,0.231 -0.095,0.347 -0.033,0.116 -0.066,0.23 -0.099,0.343 -0.03,0.106 -0.06,0.216 -0.087,0.32 -0.046,0.169 -0.095,0.341 -0.144,0.51 -0.026,0.104 -0.052,0.21 -0.08,0.312 -0.032,0.117 -0.065,0.235 -0.099,0.353 -0.029,0.117 -0.055,0.232 -0.083,0.35 -0.048,0.18 -0.102,0.359 -0.142,0.537 -0.044,0.189 -0.08,0.381 -0.122,0.57 -0.017,0.063 -0.032,0.127 -0.046,0.191 -0.021,0.088 -0.042,0.179 -0.06,0.272 -0.019,0.09 -0.032,0.181 -0.051,0.271 -0.019,0.104 -0.044,0.207 -0.058,0.31 -0.024,0.146 -0.046,0.289 -0.064,0.437 -0.012,0.085 -0.014,0.167 -0.022,0.251 -0.003,0.032 0.007,0.059 0.039,0.059 0.029,0 0.05,-0.021 0.048,-0.055 0,-0.009 0,-0.017 0.002,-0.029 0.012,-0.127 0.03,-0.253 0.045,-0.382 0,-0.011 0.004,-0.018 0.004,-0.026 0.021,-0.091 0.041,-0.181 0.06,-0.271 0.019,-0.08 0.031,-0.164 0.053,-0.246 0.032,-0.129 0.069,-0.259 0.105,-0.39 0.028,-0.103 0.058,-0.203 0.088,-0.303 0.041,-0.132 0.087,-0.265 0.134,-0.396 0.055,-0.157 0.104,-0.315 0.162,-0.473 0.081,-0.216 0.169,-0.429 0.251,-0.641 0.068,-0.172 0.136,-0.34 0.205,-0.509 0.133,-0.305 0.264,-0.609 0.396,-0.918 0.092,-0.211 0.185,-0.422 0.279,-0.631 0.133,-0.296 0.268,-0.59 0.403,-0.887 0.095,-0.21 0.191,-0.422 0.283,-0.634 0.107,-0.241 0.211,-0.486 0.318,-0.729 0.084,-0.2 0.171,-0.396 0.254,-0.595 0.066,-0.167 0.13,-0.338 0.195,-0.507 0.057,-0.149 0.117,-0.3 0.169,-0.451 0.052,-0.131 0.093,-0.267 0.134,-0.399 0.032,-0.094 0.059,-0.19 0.083,-0.285 0.034,-0.115 0.069,-0.233 0.096,-0.353 0.023,-0.085 0.04,-0.175 0.051,-0.264 0.023,-0.16 0.053,-0.32 0.061,-0.48 0.012,-0.195 0.009,-0.39 -0.03,-0.584 -0.032,-0.167 -0.049,-0.337 -0.085,-0.505 -0.034,-0.144 -0.09,-0.282 -0.138,-0.423 -0.082,-0.256 -0.207,-0.495 -0.346,-0.725 -0.172,-0.297 -0.385,-0.56 -0.621,-0.806 -0.196,-0.196 -0.407,-0.376 -0.638,-0.532 -0.218,-0.144 -0.438,-0.28 -0.677,-0.383 -0.188,-0.075 -0.381,-0.143 -0.568,-0.213 -0.041,-0.011 -0.094,-0.042 -0.165,-0.004 z m -1.211,13.658 c 0.009,-0.044 0.018,-0.069 0.021,-0.093 0.007,-0.167 0.016,-0.337 0.021,-0.504 0.011,-0.188 0.021,-0.371 0.031,-0.559 0.006,-0.174 0.029,-0.348 0,-0.521 -0.012,-0.06 -0.017,-0.119 -0.021,-0.181 -0.032,-0.282 -0.061,-0.567 -0.091,-0.85 -0.011,-0.104 -0.023,-0.203 -0.039,-0.304 -0.029,-0.181 -0.064,-0.359 -0.096,-0.541 -0.025,-0.142 -0.054,-0.286 -0.086,-0.431 -0.043,-0.186 -0.094,-0.368 -0.137,-0.556 -0.059,-0.241 -0.108,-0.484 -0.164,-0.728 -0.016,-0.067 -0.029,-0.135 -0.045,-0.2 -0.021,-0.088 -0.039,-0.175 -0.059,-0.263 -0.016,-0.086 -0.029,-0.172 -0.049,-0.255 -0.02,-0.1 -0.04,-0.199 -0.062,-0.297 -0.018,-0.104 -0.036,-0.208 -0.055,-0.311 -0.029,-0.192 -0.069,-0.385 -0.099,-0.576 -0.021,-0.131 -0.034,-0.264 -0.049,-0.394 -0.034,-0.249 -0.074,-0.499 -0.099,-0.748 -0.021,-0.216 -0.03,-0.434 -0.043,-0.646 -0.011,-0.164 -0.027,-0.322 -0.03,-0.484 -0.002,-0.355 -0.017,-0.708 0.023,-1.063 0.022,-0.217 0.029,-0.437 0.048,-0.655 0.01,-0.098 0.025,-0.194 0.042,-0.293 0.031,-0.16 0.066,-0.322 0.103,-0.483 0.025,-0.122 0.054,-0.243 0.092,-0.364 0.05,-0.169 0.111,-0.334 0.177,-0.498 0.062,-0.157 0.137,-0.311 0.215,-0.462 0.06,-0.117 0.127,-0.227 0.194,-0.344 -0.06,-0.029 -0.099,0.021 -0.135,0.037 -0.311,0.163 -0.579,0.385 -0.818,0.644 -0.223,0.243 -0.402,0.519 -0.549,0.814 -0.085,0.166 -0.163,0.337 -0.23,0.513 -0.064,0.173 -0.114,0.354 -0.163,0.531 -0.046,0.15 -0.075,0.302 -0.105,0.454 -0.021,0.089 -0.034,0.183 -0.047,0.273 -0.021,0.154 -0.057,0.31 -0.059,0.462 -0.007,0.417 -0.042,0.83 0.027,1.243 0.016,0.103 0.025,0.207 0.048,0.31 0.03,0.136 0.069,0.271 0.106,0.406 0.032,0.119 0.065,0.237 0.101,0.355 0.03,0.109 0.06,0.221 0.089,0.328 0.028,0.103 0.062,0.206 0.091,0.31 0.029,0.099 0.062,0.197 0.09,0.296 0.037,0.114 0.062,0.226 0.096,0.339 0.055,0.19 0.117,0.377 0.172,0.566 0.042,0.146 0.078,0.293 0.12,0.438 0.032,0.107 0.071,0.218 0.102,0.323 0.046,0.151 0.084,0.302 0.129,0.449 0.057,0.196 0.119,0.388 0.174,0.585 0.032,0.109 0.056,0.217 0.085,0.325 0.047,0.16 0.097,0.316 0.141,0.476 0.069,0.245 0.131,0.496 0.197,0.745 0.046,0.165 0.097,0.332 0.138,0.499 0.049,0.181 0.09,0.359 0.134,0.54 0.058,0.231 0.115,0.465 0.173,0.697 0.014,0.054 0.026,0.109 0.036,0.167 0.019,0.083 0.03,0.163 0.043,0.245 0.013,0.06 0.023,0.117 0.04,0.177 0.004,0.014 0.012,0.026 0.031,0.057 z m 0.063,10.467 c -0.268,0.077 -0.433,0.375 -0.385,0.635 0.053,0.307 0.33,0.509 0.606,0.49 0.271,-0.018 0.507,-0.23 0.547,-0.516 0.037,-0.273 -0.163,-0.561 -0.395,-0.606 -0.013,0.077 -0.074,0.06 -0.127,0.062 -0.044,0 -0.088,-0.005 -0.133,0 -0.055,0.005 -0.093,-0.012 -0.113,-0.065 z m 0.197,-9.331 c -0.004,-0.002 -0.007,-0.002 -0.012,-0.002 0,0.063 0,0.128 0,0.189 0.005,0 0.008,0 0.012,0 0,-0.061 0,-0.125 0,-0.187 z"
       id="path36"
       inkscape:connector-curvature="0"
       style="clip-rule:evenodd;fill:#444444;fill-rule:evenodd" /><path
       d="M 1.378,38.699 C 1.738,38.858 1.882,39.21 1.845,39.47 1.776,39.925 1.447,40.111 1.134,40.117 0.801,40.122 0.517,39.882 0.437,39.586 0.337,39.205 0.55,38.848 0.882,38.717 0.867,38.682 0.834,38.688 0.807,38.682 0.686,38.659 0.579,38.614 0.506,38.504 0.463,38.441 0.434,38.372 0.434,38.295 c 0,-0.056 0,-0.108 0,-0.161 0,-2.633 0,-5.269 -0.002,-7.898 0,-0.103 0.013,-0.196 0.06,-0.289 0.022,-0.042 0.022,-0.1 0.015,-0.149 C 0.476,29.585 0.444,29.371 0.404,29.158 0.381,29.019 0.354,28.881 0.32,28.746 0.28,28.59 0.231,28.436 0.183,28.282 0.117,28.068 0.054,27.854 -0.017,27.642 -0.077,27.462 -0.144,27.285 -0.21,27.11 -0.291,26.899 -0.375,26.688 -0.459,26.479 -0.543,26.278 -0.63,26.077 -0.714,25.878 -0.819,25.631 -0.923,25.383 -1.031,25.137 -1.135,24.901 -1.24,24.667 -1.346,24.433 -1.512,24.066 -1.682,23.695 -1.846,23.326 -1.965,23.062 -2.078,22.797 -2.193,22.531 -2.291,22.308 -2.39,22.089 -2.481,21.864 -2.578,21.632 -2.669,21.393 -2.76,21.159 -2.834,20.967 -2.91,20.776 -2.973,20.582 -3.046,20.355 -3.11,20.13 -3.173,19.9 c -0.041,-0.144 -0.08,-0.29 -0.104,-0.436 -0.031,-0.177 -0.06,-0.354 -0.056,-0.537 0.004,-0.165 0.003,-0.331 0.008,-0.495 0.004,-0.154 0.03,-0.306 0.066,-0.454 0.039,-0.165 0.073,-0.334 0.125,-0.493 0.056,-0.176 0.12,-0.346 0.194,-0.51 0.11,-0.246 0.246,-0.473 0.4,-0.691 0.176,-0.247 0.372,-0.478 0.594,-0.686 0.179,-0.172 0.368,-0.325 0.569,-0.465 0.272,-0.193 0.562,-0.353 0.875,-0.477 0.191,-0.073 0.38,-0.143 0.58,-0.191 0.115,-0.027 0.232,-0.049 0.348,-0.073 0.114,-0.024 0.228,-0.018 0.34,-0.04 0.199,-0.037 0.4,-0.029 0.601,-0.018 0.149,0.005 0.296,0.036 0.443,0.058 0.095,0.014 0.189,0.028 0.282,0.046 0.056,0.012 0.111,0.024 0.165,0.041 0.35,0.104 0.688,0.236 1.006,0.417 0.338,0.189 0.651,0.418 0.934,0.689 0.214,0.206 0.409,0.426 0.582,0.664 0.187,0.257 0.344,0.533 0.466,0.825 0.077,0.178 0.137,0.361 0.193,0.546 0.066,0.219 0.1,0.445 0.139,0.669 0.017,0.105 0.018,0.209 0.018,0.313 0.002,0.159 0.002,0.319 -0.006,0.479 -0.011,0.212 -0.054,0.422 -0.106,0.63 -0.031,0.121 -0.058,0.245 -0.09,0.364 -0.025,0.096 -0.052,0.191 -0.085,0.284 -0.054,0.162 -0.111,0.325 -0.17,0.49 C 5.08,21.005 5.024,21.161 4.962,21.318 4.871,21.546 4.78,21.777 4.685,22.006 4.618,22.169 4.545,22.329 4.475,22.492 4.357,22.76 4.24,23.026 4.12,23.294 4.033,23.488 3.945,23.686 3.857,23.879 3.732,24.159 3.606,24.441 3.481,24.719 3.358,24.996 3.232,25.271 3.113,25.547 2.986,25.831 2.87,26.115 2.755,26.4 2.648,26.66 2.542,26.923 2.441,27.188 2.365,27.385 2.299,27.589 2.231,27.79 2.173,27.965 2.11,28.138 2.058,28.312 2,28.514 1.95,28.713 1.902,28.915 c -0.03,0.114 -0.055,0.232 -0.077,0.35 -0.02,0.109 -0.031,0.22 -0.045,0.329 -0.011,0.079 -0.024,0.153 -0.032,0.232 -0.007,0.054 -10e-4,0.106 0.03,0.153 0.046,0.067 0.043,0.144 0.043,0.219 0,1.242 0,2.479 0,3.719 0,1.438 -0.002,2.878 0,4.314 0,0.116 -0.017,0.22 -0.095,0.309 -0.073,0.081 -0.165,0.117 -0.265,0.141 -0.029,0.004 -0.056,0.012 -0.083,0.018 z M 1.046,25.422 c 0.008,0 0.016,0 0.024,0 C 1.086,25.327 1.103,25.234 1.115,25.141 1.132,25.037 1.14,24.932 1.158,24.829 1.175,24.741 1.202,24.655 1.223,24.569 1.269,24.379 1.312,24.183 1.359,23.99 1.388,23.866 1.425,23.743 1.454,23.618 1.485,23.487 1.508,23.353 1.537,23.222 1.568,23.085 1.606,22.955 1.635,22.823 1.674,22.651 1.711,22.479 1.746,22.304 1.784,22.107 1.824,21.909 1.86,21.711 1.878,21.618 1.894,21.527 1.907,21.436 1.923,21.332 1.935,21.229 1.951,21.124 1.974,20.968 1.996,20.812 2.019,20.655 2.021,20.643 2.021,20.632 2.024,20.62 2.044,20.488 2.067,20.355 2.083,20.223 2.1,20.108 2.111,19.995 2.12,19.88 2.134,19.726 2.148,19.568 2.156,19.413 2.164,19.267 2.168,19.126 2.171,18.979 2.173,18.681 2.178,18.384 2.173,18.086 2.168,17.861 2.146,17.636 2.129,17.413 2.119,17.283 2.099,17.157 2.084,17.028 2.084,17.023 2.083,17.017 2.082,17.01 2.061,16.911 2.04,16.81 2.02,16.714 2.004,16.63 1.993,16.544 1.973,16.466 1.928,16.301 1.882,16.138 1.829,15.977 1.778,15.828 1.723,15.676 1.659,15.533 1.573,15.337 1.47,15.148 1.35,14.968 1.278,14.862 1.197,14.756 1.119,14.653 1.083,14.609 1.063,14.609 1.028,14.654 c -0.05,0.063 -0.099,0.129 -0.146,0.195 -0.164,0.229 -0.296,0.476 -0.406,0.732 -0.072,0.172 -0.134,0.348 -0.189,0.521 -0.038,0.113 -0.058,0.232 -0.089,0.348 -0.05,0.186 -0.091,0.373 -0.114,0.563 -0.012,0.108 -0.031,0.214 -0.043,0.322 -0.021,0.21 -0.052,0.416 -0.059,0.626 -0.012,0.297 -0.006,0.595 -0.007,0.895 0,0.122 -10e-4,0.247 0.007,0.369 0.017,0.246 0.037,0.49 0.062,0.736 0.022,0.227 0.047,0.454 0.074,0.681 0.013,0.111 0.033,0.22 0.047,0.33 0.017,0.125 0.031,0.252 0.05,0.374 0.033,0.21 0.071,0.413 0.107,0.619 0.003,0.017 0.008,0.031 0.01,0.044 0.018,0.089 0.038,0.177 0.055,0.264 0.018,0.094 0.033,0.186 0.05,0.281 0.012,0.064 0.026,0.127 0.04,0.193 0.021,0.093 0.043,0.188 0.065,0.279 0.033,0.146 0.068,0.294 0.102,0.438 0.028,0.117 0.057,0.232 0.084,0.35 0.018,0.079 0.031,0.159 0.047,0.235 0.013,0.058 0.026,0.111 0.041,0.167 0.021,0.076 0.042,0.153 0.061,0.232 0.019,0.08 0.032,0.164 0.046,0.246 0.025,0.128 0.051,0.254 0.073,0.379 0.018,0.118 0.033,0.233 0.05,0.349 z m 0.295,3.115 c 0.006,0 0.012,0 0.017,0 0.005,-0.012 0.013,-0.021 0.014,-0.031 0.042,-0.202 0.082,-0.405 0.124,-0.607 0.013,-0.061 0.025,-0.123 0.042,-0.184 0.033,-0.13 0.068,-0.259 0.099,-0.391 0.03,-0.125 0.056,-0.251 0.086,-0.376 0.035,-0.142 0.071,-0.284 0.108,-0.424 0.03,-0.114 0.062,-0.227 0.091,-0.339 0.031,-0.113 0.062,-0.225 0.094,-0.336 0.028,-0.11 0.055,-0.219 0.084,-0.33 0.046,-0.166 0.094,-0.335 0.143,-0.499 0.045,-0.163 0.091,-0.323 0.138,-0.485 0.03,-0.108 0.059,-0.218 0.09,-0.328 0.026,-0.095 0.054,-0.194 0.082,-0.291 0.034,-0.109 0.068,-0.218 0.1,-0.325 0.032,-0.106 0.059,-0.213 0.092,-0.32 C 2.788,23.123 2.837,22.973 2.88,22.829 2.921,22.683 2.958,22.54 2.999,22.396 3.051,22.227 3.102,22.06 3.154,21.891 3.199,21.742 3.244,21.594 3.289,21.443 3.318,21.345 3.345,21.25 3.372,21.152 3.4,21.045 3.427,20.94 3.457,20.831 3.489,20.715 3.525,20.599 3.557,20.477 3.588,20.36 3.613,20.239 3.647,20.122 3.701,19.938 3.733,19.751 3.744,19.563 3.773,18.968 3.769,18.375 3.643,17.784 3.582,17.504 3.514,17.222 3.419,16.949 3.345,16.733 3.262,16.529 3.163,16.328 2.982,15.968 2.761,15.639 2.475,15.351 2.244,15.115 1.98,14.925 1.684,14.778 1.626,14.749 1.561,14.725 1.483,14.692 c 0.01,0.033 0.011,0.05 0.019,0.06 0.045,0.074 0.093,0.145 0.137,0.22 0.148,0.239 0.26,0.499 0.365,0.757 0.046,0.113 0.081,0.232 0.114,0.349 0.033,0.114 0.059,0.23 0.086,0.348 0.035,0.155 0.072,0.309 0.099,0.465 0.025,0.143 0.043,0.286 0.058,0.43 0.025,0.252 0.052,0.501 0.061,0.752 0.019,0.526 0.004,1.056 -0.043,1.578 C 2.354,19.957 2.313,20.259 2.278,20.563 2.25,20.79 2.22,21.009 2.192,21.235 2.191,21.249 2.187,21.262 2.185,21.278 2.164,21.382 2.143,21.482 2.127,21.586 2.11,21.683 2.099,21.783 2.08,21.879 2.049,22.037 2.012,22.195 1.979,22.352 1.955,22.466 1.936,22.582 1.91,22.695 1.871,22.875 1.828,23.052 1.788,23.232 1.757,23.367 1.731,23.5 1.7,23.632 1.67,23.759 1.633,23.886 1.603,24.014 1.555,24.205 1.507,24.399 1.466,24.588 1.428,24.751 1.396,24.913 1.37,25.077 1.349,25.213 1.341,25.349 1.325,25.486 1.303,25.659 1.28,25.834 1.263,26.005 1.248,26.164 1.235,26.321 1.23,26.482 c -0.011,0.274 -0.027,0.549 0.018,0.827 0.026,0.157 0.015,0.322 0.038,0.482 0.03,0.219 0.03,0.444 0.044,0.664 0.002,0.026 0.006,0.052 0.011,0.082 z M 0.159,14.724 c 0,-0.007 -0.001,-0.013 -0.002,-0.018 -0.02,0 -0.042,-0.002 -0.061,0.003 -0.21,0.072 -0.423,0.141 -0.63,0.226 -0.189,0.078 -0.369,0.18 -0.542,0.291 -0.346,0.217 -0.657,0.476 -0.93,0.777 -0.208,0.23 -0.389,0.483 -0.546,0.753 -0.197,0.338 -0.341,0.695 -0.432,1.072 -0.051,0.214 -0.083,0.436 -0.107,0.656 -0.025,0.224 -0.018,0.442 0.011,0.668 0.029,0.228 0.079,0.453 0.135,0.677 0.046,0.189 0.11,0.376 0.173,0.562 0.072,0.219 0.148,0.437 0.23,0.652 0.118,0.307 0.241,0.613 0.369,0.919 0.156,0.375 0.32,0.744 0.483,1.116 0.146,0.333 0.297,0.664 0.447,0.996 0.129,0.285 0.258,0.571 0.387,0.856 0.114,0.256 0.228,0.519 0.34,0.778 0.072,0.166 0.136,0.33 0.203,0.498 0.098,0.241 0.197,0.486 0.292,0.729 0.076,0.191 0.148,0.386 0.218,0.581 0.044,0.123 0.083,0.247 0.122,0.373 0.028,0.089 0.057,0.181 0.083,0.271 0.048,0.163 0.099,0.327 0.142,0.49 0.033,0.129 0.06,0.263 0.09,0.396 0.021,0.106 0.043,0.209 0.059,0.313 0.019,0.119 0.027,0.236 0.045,0.35 0.002,0.021 0.023,0.05 0.039,0.054 0.033,0 0.042,-0.028 0.039,-0.061 C 0.81,29.611 0.806,29.519 0.794,29.427 0.779,29.309 0.758,29.19 0.742,29.071 0.725,28.967 0.712,28.864 0.693,28.761 0.684,28.699 0.673,28.638 0.66,28.576 0.627,28.43 0.593,28.284 0.562,28.138 0.528,27.985 0.497,27.832 0.462,27.682 0.405,27.434 0.343,27.188 0.284,26.94 0.268,26.88 0.251,26.82 0.235,26.76 0.204,26.638 0.172,26.52 0.138,26.397 0.107,26.283 0.08,26.168 0.048,26.051 10e-4,25.876 -0.047,25.702 -0.094,25.53 -0.123,25.43 -0.152,25.323 -0.183,25.22 -0.21,25.116 -0.244,25.008 -0.273,24.905 -0.304,24.791 -0.329,24.678 -0.361,24.566 -0.419,24.36 -0.483,24.16 -0.542,23.955 -0.584,23.815 -0.621,23.673 -0.662,23.532 -0.696,23.416 -0.732,23.3 -0.766,23.182 -0.797,23.078 -0.831,22.97 -0.862,22.865 -0.906,22.713 -0.952,22.559 -0.997,22.407 -1.025,22.308 -1.053,22.213 -1.08,22.114 -1.111,22.01 -1.146,21.905 -1.177,21.799 -1.208,21.695 -1.232,21.587 -1.262,21.481 -1.321,21.284 -1.385,21.086 -1.44,20.888 -1.484,20.729 -1.522,20.57 -1.563,20.409 c -0.015,-0.054 -0.028,-0.107 -0.042,-0.164 -0.02,-0.085 -0.045,-0.166 -0.06,-0.252 -0.021,-0.122 -0.028,-0.25 -0.049,-0.373 -0.038,-0.224 -0.025,-0.449 -0.029,-0.676 -0.002,-0.207 0.014,-0.414 0.039,-0.621 0.015,-0.131 0.027,-0.262 0.044,-0.392 0.01,-0.074 0.024,-0.147 0.041,-0.221 0.018,-0.083 0.038,-0.163 0.061,-0.242 0.039,-0.16 0.071,-0.321 0.124,-0.479 0.081,-0.231 0.167,-0.46 0.268,-0.683 0.127,-0.275 0.287,-0.535 0.471,-0.779 0.22,-0.288 0.477,-0.533 0.772,-0.743 0.027,-0.018 0.054,-0.041 0.082,-0.06 z m 1.929,0.005 c 0.015,0.008 0.028,0.013 0.041,0.02 0.015,0.009 0.029,0.022 0.044,0.032 0.156,0.104 0.299,0.226 0.435,0.355 0.178,0.173 0.333,0.365 0.473,0.571 0.156,0.223 0.282,0.463 0.395,0.709 0.097,0.217 0.177,0.438 0.243,0.665 0.038,0.128 0.068,0.26 0.101,0.39 0.017,0.068 0.027,0.137 0.042,0.203 0.029,0.125 0.061,0.25 0.066,0.377 0,0.02 0.004,0.038 0.006,0.055 0.021,0.162 0.051,0.326 0.058,0.49 0.011,0.281 0.008,0.564 0.002,0.85 -0.002,0.128 -0.022,0.256 -0.039,0.383 -0.01,0.077 -0.024,0.154 -0.041,0.23 -0.019,0.077 -0.041,0.156 -0.062,0.235 -0.033,0.126 -0.064,0.253 -0.1,0.38 -0.041,0.152 -0.085,0.303 -0.128,0.456 -0.042,0.151 -0.082,0.301 -0.125,0.448 -0.032,0.113 -0.067,0.223 -0.101,0.333 -0.031,0.11 -0.064,0.22 -0.096,0.329 -0.045,0.152 -0.091,0.303 -0.134,0.458 -0.027,0.096 -0.053,0.194 -0.081,0.29 -0.043,0.143 -0.092,0.283 -0.133,0.427 -0.05,0.164 -0.097,0.334 -0.145,0.498 -0.041,0.139 -0.082,0.276 -0.121,0.412 -0.033,0.117 -0.062,0.231 -0.094,0.347 -0.031,0.115 -0.065,0.23 -0.098,0.343 -0.031,0.106 -0.061,0.216 -0.09,0.32 -0.047,0.169 -0.094,0.341 -0.141,0.51 -0.028,0.104 -0.053,0.21 -0.082,0.312 -0.032,0.117 -0.068,0.235 -0.099,0.353 -0.029,0.117 -0.054,0.232 -0.083,0.35 -0.047,0.18 -0.099,0.359 -0.142,0.537 -0.044,0.189 -0.081,0.381 -0.123,0.57 -0.014,0.063 -0.03,0.127 -0.045,0.191 -0.02,0.088 -0.042,0.179 -0.059,0.272 -0.018,0.09 -0.032,0.181 -0.05,0.271 -0.017,0.104 -0.042,0.207 -0.06,0.31 -0.023,0.146 -0.044,0.289 -0.063,0.437 -0.01,0.085 -0.014,0.167 -0.022,0.251 -0.002,0.032 0.007,0.059 0.042,0.059 0.027,0 0.047,-0.021 0.046,-0.055 -0.002,-0.009 0,-0.017 0.001,-0.029 C 1.541,29.547 1.554,29.421 1.569,29.292 1.57,29.281 1.574,29.274 1.577,29.266 1.596,29.175 1.616,29.085 1.636,28.995 1.654,28.915 1.668,28.831 1.689,28.749 1.721,28.62 1.757,28.49 1.793,28.359 1.823,28.256 1.851,28.156 1.881,28.056 1.926,27.924 1.97,27.791 2.016,27.66 2.069,27.503 2.12,27.345 2.179,27.187 2.26,26.971 2.346,26.758 2.43,26.546 c 0.067,-0.172 0.133,-0.34 0.205,-0.509 0.129,-0.305 0.264,-0.609 0.397,-0.918 0.091,-0.211 0.182,-0.422 0.277,-0.631 0.133,-0.296 0.269,-0.59 0.402,-0.887 0.095,-0.21 0.191,-0.422 0.284,-0.634 0.106,-0.241 0.212,-0.486 0.318,-0.729 0.084,-0.2 0.171,-0.396 0.253,-0.595 0.07,-0.167 0.131,-0.338 0.197,-0.507 0.058,-0.149 0.117,-0.3 0.172,-0.451 0.048,-0.131 0.09,-0.267 0.133,-0.399 0.029,-0.094 0.056,-0.19 0.083,-0.285 C 5.185,19.888 5.22,19.77 5.25,19.65 5.27,19.565 5.287,19.475 5.3,19.386 5.323,19.226 5.351,19.066 5.359,18.906 5.369,18.711 5.368,18.516 5.33,18.322 5.297,18.155 5.281,17.985 5.244,17.817 5.21,17.673 5.155,17.535 5.108,17.394 5.022,17.138 4.9,16.899 4.762,16.669 4.59,16.372 4.374,16.109 4.138,15.863 3.943,15.667 3.732,15.487 3.5,15.331 3.283,15.187 3.062,15.051 2.821,14.948 2.637,14.873 2.447,14.805 2.257,14.735 2.209,14.722 2.158,14.691 2.088,14.729 Z M 0.876,28.387 c 0.01,-0.044 0.02,-0.069 0.022,-0.093 0.008,-0.167 0.016,-0.337 0.024,-0.504 0.009,-0.188 0.019,-0.371 0.027,-0.559 0.007,-0.174 0.031,-0.348 0,-0.521 C 0.939,26.65 0.934,26.591 0.928,26.529 0.898,26.247 0.87,25.962 0.84,25.679 0.827,25.575 0.817,25.476 0.799,25.375 0.77,25.194 0.737,25.016 0.704,24.834 0.678,24.692 0.651,24.548 0.618,24.403 0.575,24.217 0.523,24.035 0.48,23.847 0.423,23.606 0.373,23.363 0.318,23.119 0.302,23.052 0.287,22.984 0.274,22.919 0.253,22.831 0.233,22.744 0.215,22.656 0.197,22.57 0.184,22.484 0.167,22.401 0.146,22.301 0.124,22.202 0.105,22.104 0.085,22 0.067,21.896 0.049,21.793 c -0.032,-0.192 -0.069,-0.385 -0.1,-0.576 -0.021,-0.131 -0.032,-0.264 -0.05,-0.394 -0.032,-0.249 -0.071,-0.499 -0.096,-0.748 -0.022,-0.216 -0.031,-0.434 -0.044,-0.646 -0.01,-0.164 -0.028,-0.322 -0.03,-0.484 -0.003,-0.355 -0.015,-0.708 0.022,-1.063 0.025,-0.217 0.031,-0.437 0.051,-0.655 0.007,-0.098 0.024,-0.194 0.042,-0.293 0.03,-0.16 0.063,-0.322 0.101,-0.483 0.027,-0.122 0.054,-0.243 0.092,-0.364 0.053,-0.169 0.109,-0.334 0.177,-0.498 0.064,-0.157 0.136,-0.311 0.214,-0.462 0.06,-0.117 0.128,-0.227 0.195,-0.344 -0.06,-0.029 -0.1,0.021 -0.133,0.037 -0.312,0.163 -0.582,0.385 -0.817,0.644 -0.224,0.243 -0.405,0.519 -0.553,0.814 -0.083,0.166 -0.162,0.337 -0.228,0.513 -0.065,0.173 -0.117,0.354 -0.167,0.531 -0.042,0.15 -0.074,0.302 -0.106,0.454 -0.019,0.089 -0.031,0.183 -0.043,0.273 -0.022,0.154 -0.057,0.31 -0.06,0.462 -0.007,0.417 -0.04,0.83 0.028,1.243 0.015,0.103 0.025,0.207 0.048,0.31 0.031,0.136 0.068,0.271 0.105,0.406 0.033,0.119 0.067,0.237 0.102,0.355 0.029,0.109 0.058,0.221 0.089,0.328 0.029,0.103 0.059,0.206 0.089,0.31 0.029,0.099 0.062,0.197 0.092,0.296 0.033,0.114 0.062,0.226 0.095,0.339 0.057,0.19 0.115,0.377 0.171,0.566 0.043,0.146 0.08,0.293 0.123,0.438 0.032,0.107 0.069,0.218 0.099,0.323 0.045,0.151 0.084,0.302 0.128,0.449 0.058,0.196 0.12,0.388 0.175,0.585 0.033,0.109 0.057,0.217 0.086,0.325 0.044,0.16 0.094,0.316 0.139,0.476 0.067,0.245 0.131,0.496 0.198,0.745 0.046,0.165 0.094,0.332 0.138,0.499 0.046,0.181 0.087,0.359 0.132,0.54 0.057,0.231 0.115,0.465 0.171,0.697 0.014,0.054 0.028,0.109 0.039,0.167 0.016,0.083 0.028,0.163 0.045,0.245 0.009,0.06 0.022,0.117 0.035,0.177 0.006,0.014 0.014,0.026 0.033,0.057 z m 0.065,10.467 c -0.269,0.077 -0.434,0.375 -0.388,0.635 0.057,0.307 0.333,0.509 0.607,0.49 0.273,-0.018 0.509,-0.23 0.548,-0.516 C 1.746,39.19 1.545,38.902 1.311,38.857 1.3,38.934 1.24,38.917 1.187,38.919 c -0.045,0 -0.091,-0.005 -0.134,0 C 0.999,38.924 0.96,38.907 0.941,38.854 Z M 1.136,29.523 C 1.133,29.521 1.128,29.521 1.124,29.521 c 0,0.063 0,0.128 0,0.189 0.004,0 0.009,0 0.012,0 0,-0.061 0,-0.125 0,-0.187 z"
       id="path38"
       inkscape:connector-curvature="0"
       style="clip-rule:evenodd;fill:#444444;fill-rule:evenodd" /></g><path
     fill-rule="evenodd"
     clip-rule="evenodd"
     fill="#FFFFFF"
     d="M5.474,26.225c0,0.04,0,0.081,0,0.12c-0.002,0-0.005,0-0.008,0  c0-0.039,0-0.08,0-0.12C5.469,26.225,5.472,26.225,5.474,26.225z"
     id="path42" /></svg>